<svg xmlns="http://www.w3.org/2000/svg">
    <symbol id="email">
        <path d="M18 4L10 9L2 4V2L10 7L18 2M18 0H2C0.89 0 0 0.89 0 2V14C0 14.5304 0.210714 15.0391 0.585786 15.4142C0.960859 15.7893 1.46957 16 2 16H18C18.5304 16 19.0391 15.7893 19.4142 15.4142C19.7893 15.0391 20 14.5304 20 14V2C20 1.46957 19.7893 0.960859 19.4142 0.585786C19.0391 0.210714 18.5304 0 18 0Z" />
    </symbol>
    <symbol id="map-pin">
        <path d="M9.00021 0.928711C11.2167 0.928711 13.3423 1.80919 14.9096 3.37646C16.4769 4.94373 17.3574 7.0694 17.3574 9.28586C17.3574 12.8173 14.8759 16.6659 9.97735 20.8727C9.70497 21.1067 9.35769 21.2352 8.99861 21.2349C8.63952 21.2346 8.29247 21.1055 8.0205 20.871L7.6965 20.5899C3.01478 16.4927 0.643066 12.7384 0.643066 9.28586C0.643066 7.0694 1.52355 4.94373 3.09082 3.37646C4.65809 1.80919 6.78376 0.928711 9.00021 0.928711ZM9.00021 6.07157C8.14773 6.07157 7.33016 6.41022 6.72737 7.01301C6.12457 7.61581 5.78592 8.43337 5.78592 9.28586C5.78592 10.1383 6.12457 10.9559 6.72737 11.5587C7.33016 12.1615 8.14773 12.5001 9.00021 12.5001C9.85269 12.5001 10.6703 12.1615 11.2731 11.5587C11.8758 10.9559 12.2145 10.1383 12.2145 9.28586C12.2145 8.43337 11.8758 7.61581 11.2731 7.01301C10.6703 6.41022 9.85269 6.07157 9.00021 6.07157Z" />
    </symbol>
    <symbol id="multilayers">
        <path d="M1.42871 1.74603C1.42871 0.781725 2.21044 0 3.17474 0H16.8255C17.7898 0 18.5716 0.781725 18.5716 1.74603H1.42871Z" fill="#E50E78"/>
        <path d="M0.476562 4.44525C0.476562 3.48094 1.25829 2.69922 2.22259 2.69922H17.7781C18.7425 2.69922 19.5242 3.48094 19.5242 4.44525H0.476562Z" fill="#E50E78"/>
        <path d="M1 7.39746C1 6.84518 1.44771 6.39746 2 6.39746H18C18.5523 6.39746 19 6.84518 19 7.39746V15.6197C19 16.172 18.5523 16.6197 18 16.6197H2C1.44772 16.6197 1 16.172 1 15.6197V7.39746Z" stroke="#E50E78" stroke-width="2" fill="none" />
    </symbol>
    <symbol id="magnifier">
        <path d="M6.39423 4.89554C6.09755 4.59862 5.6162 4.59862 5.31952 4.89554C4.21797 5.99709 3.67656 7.53161 3.8339 9.10591C3.87316 9.49809 4.20355 9.79044 4.58939 9.79044C4.61474 9.79044 4.6403 9.78915 4.66565 9.78662C5.08343 9.74483 5.38819 9.37213 5.3464 8.95463C5.23442 7.83585 5.61648 6.748 6.39423 5.97021C6.69115 5.67357 6.69115 5.19219 6.39423 4.89554Z" />
        <path d="M9.40412 0.213867C4.61257 0.213867 0.714355 4.11208 0.714355 8.90363C0.714355 13.6952 4.61257 17.5934 9.40412 17.5934C14.1957 17.5934 18.0939 13.6952 18.0939 8.90363C18.0939 4.11208 14.1956 0.213867 9.40412 0.213867ZM9.40412 16.0733C5.45066 16.0733 2.23445 12.8571 2.23445 8.90363C2.23445 4.95017 5.45066 1.73396 9.40412 1.73396C13.3573 1.73396 16.5738 4.95017 16.5738 8.90363C16.5738 12.8571 13.3576 16.0733 9.40412 16.0733Z" />
        <path d="M21.063 19.4878L15.5401 13.9649C15.2432 13.668 14.7623 13.668 14.4654 13.9649C14.1684 14.2616 14.1684 14.7429 14.4654 15.0396L19.9883 20.5625C20.0588 20.6332 20.1426 20.6893 20.2348 20.7275C20.327 20.7657 20.4259 20.7853 20.5257 20.7852C20.7203 20.7852 20.9146 20.711 21.063 20.5625C21.3599 20.2658 21.3599 19.7845 21.063 19.4878Z" />
    </symbol>
    <symbol id="person">
        <path d="M11.7789 12.0344C12.9514 12.0344 13.9666 11.6138 14.7962 10.7841C15.6257 9.95463 16.0462 8.93964 16.0462 7.76706C16.0462 6.59484 15.6257 5.57974 14.796 4.74991C13.9663 3.9205 12.9512 3.5 11.7789 3.5C10.6063 3.5 9.59129 3.9205 8.76177 4.75005C7.93226 5.5796 7.51158 6.59473 7.51158 7.76706C7.51158 8.93964 7.93222 9.95477 8.76191 10.7843C9.5916 11.6137 10.6067 12.0344 11.7789 12.0344ZM19.2456 17.1235C19.2216 16.7783 19.1732 16.4017 19.102 16.0041C19.0301 15.6034 18.9375 15.2246 18.8267 14.8785C18.7122 14.5207 18.5565 14.1674 18.364 13.8287C18.1642 13.4773 17.9296 13.1713 17.6662 12.9195C17.3909 12.656 17.0538 12.4442 16.6639 12.2897C16.2755 12.136 15.8449 12.0582 15.3844 12.0582C15.2036 12.0582 15.0287 12.1324 14.6909 12.3523C14.4508 12.5087 14.2099 12.6639 13.9684 12.8181C13.7363 12.966 13.4219 13.1045 13.0335 13.23C12.6547 13.3526 12.27 13.4147 11.8903 13.4147C11.5106 13.4147 11.126 13.3526 10.7467 13.23C10.3588 13.1046 10.0444 12.9661 9.81258 12.8182C9.54371 12.6464 9.30045 12.4896 9.08943 12.3521C8.75205 12.1322 8.57699 12.058 8.39615 12.058C7.93548 12.058 7.50511 12.136 7.11676 12.2898C6.72719 12.4441 6.38994 12.6559 6.11433 12.9196C5.85117 13.1715 5.61638 13.4774 5.41686 13.8287C5.22453 14.1673 5.06882 14.5205 4.95417 14.8786C4.84344 15.2248 4.75088 15.6034 4.67897 16.0041C4.60772 16.4012 4.55935 16.7779 4.5354 17.1239C4.51158 17.4721 4.49978 17.8211 4.5 18.1701C4.5 19.095 4.79399 19.8437 5.37374 20.3958C5.94633 20.9407 6.70394 21.2171 7.62525 21.2171H16.1561C17.0774 21.2171 17.8348 20.9409 18.4075 20.3959C18.9874 19.8441 19.2814 19.0953 19.2814 18.17C19.2812 17.813 19.2692 17.4609 19.2456 17.1235Z" />
    </symbol>
    <symbol id="heart">
        <path d="M4.35938 14.5268L11.418 21.0768C11.7109 21.3486 12.0977 21.5 12.5 21.5C12.9023 21.5 13.2891 21.3486 13.582 21.0768L20.6406 14.5268C21.8281 13.428 22.5 11.8866 22.5 10.2754V10.0502C22.5 7.33622 20.5273 5.02218 17.8359 4.57568C16.0547 4.2806 14.2422 4.85911 12.9688 6.12484L12.5 6.59075L12.0312 6.12484C10.7578 4.85911 8.94531 4.2806 7.16406 4.57568C4.47266 5.02218 2.5 7.33622 2.5 10.0502V10.2754C2.5 11.8866 3.17187 13.428 4.35938 14.5268Z" />
    </symbol>
    <symbol id="cart">
        <path d="M3.5 5.29219C3.5 4.85318 3.85318 4.5 4.29219 4.5H5.79404C6.52022 4.5 7.16387 4.9225 7.46424 5.55625H21.0305C21.8986 5.55625 22.5323 6.38145 22.3046 7.21984L20.9512 12.2469C20.6707 13.2834 19.7299 14.0062 18.6572 14.0062H9.13443L9.31268 14.947C9.38529 15.32 9.71207 15.5906 10.0917 15.5906H19.6078C20.0468 15.5906 20.4 15.9438 20.4 16.3828C20.4 16.8218 20.0468 17.175 19.6078 17.175H10.0917C8.94959 17.175 7.96926 16.363 7.75801 15.244L6.05481 6.29893C6.0317 6.1735 5.92277 6.08437 5.79404 6.08437H4.29219C3.85318 6.08437 3.5 5.73119 3.5 5.29219ZM7.725 19.8156C7.725 19.6076 7.76598 19.4015 7.8456 19.2093C7.92523 19.0171 8.04193 18.8424 8.18905 18.6953C8.33618 18.5482 8.51084 18.4315 8.70306 18.3519C8.89529 18.2722 9.10131 18.2312 9.30938 18.2312C9.51744 18.2312 9.72346 18.2722 9.91569 18.3519C10.1079 18.4315 10.2826 18.5482 10.4297 18.6953C10.5768 18.8424 10.6935 19.0171 10.7731 19.2093C10.8528 19.4015 10.8938 19.6076 10.8938 19.8156C10.8938 20.0237 10.8528 20.2297 10.7731 20.4219C10.6935 20.6142 10.5768 20.7888 10.4297 20.9359C10.2826 21.0831 10.1079 21.1998 9.91569 21.2794C9.72346 21.359 9.51744 21.4 9.30938 21.4C9.10131 21.4 8.89529 21.359 8.70306 21.2794C8.51084 21.1998 8.33618 21.0831 8.18905 20.9359C8.04193 20.7888 7.92523 20.6142 7.8456 20.4219C7.76598 20.2297 7.725 20.0237 7.725 19.8156ZM18.8156 18.2312C19.2358 18.2312 19.6388 18.3982 19.936 18.6953C20.2331 18.9924 20.4 19.3954 20.4 19.8156C20.4 20.2358 20.2331 20.6388 19.936 20.9359C19.6388 21.2331 19.2358 21.4 18.8156 21.4C18.3954 21.4 17.9924 21.2331 17.6953 20.9359C17.3982 20.6388 17.2313 20.2358 17.2313 19.8156C17.2313 19.3954 17.3982 18.9924 17.6953 18.6953C17.9924 18.3982 18.3954 18.2312 18.8156 18.2312Z" />
    </symbol>
    <symbol id="flame">
        <path d="M9.75603 1.23311C10.0868 0.919449 10.6 0.923745 10.9308 1.2374C12.1013 2.35024 13.1998 3.54901 14.2261 4.8466C14.6926 4.22788 15.2228 3.5533 15.7953 3.00333C16.1304 2.68538 16.6478 2.68538 16.9828 3.00763C18.4502 4.42553 19.6929 6.29887 20.5665 8.07769C21.4275 9.83073 22 11.6224 22 12.8857C22 18.3682 17.7674 23 12.5 23C7.17321 23 3 18.3639 3 12.8814C3 11.2314 3.75491 9.2163 4.92545 7.22265C6.10871 5.19893 7.77969 3.08926 9.75603 1.23311ZM12.5721 18.8752C13.6451 18.8752 14.5951 18.5744 15.49 17.9729C17.2754 16.7097 17.7547 14.1832 16.6817 12.1982C16.4908 11.8115 16.0031 11.7857 15.7275 12.1123L14.6587 13.3712C14.3788 13.6977 13.8741 13.6891 13.6112 13.3497C12.9114 12.4474 11.6603 10.8361 10.9478 9.92096C10.6806 9.57722 10.1717 9.57293 9.90022 9.91666C8.46674 11.7427 7.74576 12.8942 7.74576 14.1875C7.75 17.1308 9.89598 18.8752 12.5721 18.8752Z" fill="#FF4345"/>
    </symbol>
    <symbol id="shop-mark">
        <path d="M19.5385 2H14.2637C14.044 2 13.8242 2.08791 13.6484 2.26374L5.12088 10.7912L2.65934 13.2527C1.78022 14.1319 1.78022 15.5385 2.65934 16.4176L7.58242 21.3407C8.02198 21.7802 8.59341 22 9.16483 22C9.73626 22 10.3077 21.7802 10.7473 21.3407L21.7363 10.3516C21.9121 10.1758 22 9.95604 22 9.73626V4.46154C22 3.0989 20.9011 2 19.5385 2ZM9.51648 20.1099C9.34066 20.2857 9.03297 20.2857 8.85714 20.1099L3.89011 15.1868C3.71429 15.011 3.71429 14.7033 3.89011 14.5275L5.73626 12.6813L11.3187 18.2637L9.51648 20.1099ZM18.3956 7.89011C17.7802 8.50549 16.7253 8.50549 16.1099 7.89011C15.4945 7.27472 15.4945 6.21978 16.1099 5.6044C16.7253 4.98901 17.7802 4.98901 18.3956 5.6044C19.011 6.21978 19.011 7.27472 18.3956 7.89011Z" fill="#FF9935"/>
    </symbol>
    <symbol id="diamond">
        <path d="M9.36716 19.7C9.39905 19.7284 9.43934 19.7456 9.48191 19.749C9.52448 19.7524 9.56699 19.7418 9.60299 19.7188C9.63898 19.6959 9.66649 19.6618 9.68132 19.6217C9.69615 19.5817 9.6975 19.5379 9.68516 19.497L7.16516 10.859C7.14231 10.7804 7.09595 10.7107 7.03231 10.6592C6.96867 10.6077 6.8908 10.5769 6.80916 10.571C6.40116 10.541 5.99416 10.508 5.58716 10.471L2.21716 10.164C2.18154 10.1605 2.14564 10.1668 2.11328 10.1821C2.08093 10.1974 2.05333 10.2212 2.03343 10.251C2.01353 10.2807 2.00206 10.3153 2.00025 10.3511C1.99844 10.3868 2.00636 10.4224 2.02316 10.454C3.84616 13.864 6.47116 17.114 9.36716 19.7ZM11.8392 21.526C11.8592 21.596 11.9192 21.648 11.9922 21.648C12.0274 21.647 12.0614 21.6345 12.089 21.6125C12.1166 21.5905 12.1363 21.5602 12.1452 21.526L15.2292 10.953C15.2383 10.9223 15.24 10.8899 15.234 10.8584C15.228 10.8269 15.2146 10.7973 15.1948 10.7721C15.175 10.747 15.1494 10.7269 15.1203 10.7136C15.0911 10.7004 15.0592 10.6943 15.0272 10.696C13.0048 10.7828 10.9796 10.7828 8.95716 10.696C8.92528 10.6944 8.89348 10.7004 8.86441 10.7136C8.83534 10.7268 8.80985 10.7468 8.79008 10.7719C8.77031 10.7969 8.75682 10.8263 8.75074 10.8577C8.74467 10.889 8.74618 10.9214 8.75516 10.952L11.8392 21.526ZM14.2992 19.497C14.2432 19.687 14.4692 19.832 14.6172 19.7C17.5132 17.113 20.1382 13.864 21.9612 10.454C21.9779 10.4225 21.9858 10.387 21.984 10.3514C21.9823 10.3157 21.9709 10.2812 21.9511 10.2515C21.9313 10.2218 21.9039 10.1979 21.8717 10.1825C21.8395 10.1671 21.8037 10.1607 21.7682 10.164L18.3982 10.471C17.9902 10.508 17.5832 10.541 17.1752 10.571C17.0935 10.5769 17.0157 10.6077 16.952 10.6592C16.8884 10.7107 16.842 10.7804 16.8192 10.859L14.2992 19.497ZM21.7932 8.656C21.828 8.65294 21.8615 8.64078 21.8902 8.62074C21.9189 8.60069 21.9418 8.57347 21.9567 8.54179C21.9716 8.5101 21.9779 8.47507 21.975 8.44018C21.9721 8.4053 21.9601 8.37179 21.9402 8.343L18.7022 3.648C18.5642 3.44805 18.3797 3.28461 18.1646 3.17174C17.9494 3.05886 17.7101 2.99993 17.4672 3H14.9772C14.9443 3 14.912 3.00809 14.883 3.02355C14.854 3.03901 14.8293 3.06136 14.811 3.08864C14.7927 3.11592 14.7815 3.14729 14.7782 3.17996C14.7749 3.21264 14.7797 3.24562 14.7922 3.276L17.0492 8.799C17.0812 8.87712 17.1372 8.9431 17.209 8.98746C17.2809 9.03183 17.365 9.05232 17.4492 9.046C17.7192 9.025 17.9912 9.002 18.2622 8.976L21.7932 8.656ZM13.1572 3.246C13.1267 3.17301 13.0753 3.11069 13.0095 3.0669C12.9436 3.02312 12.8662 2.99984 12.7872 3H11.1972C11.1181 2.99984 11.0407 3.02312 10.9749 3.0669C10.909 3.11069 10.8576 3.17301 10.8272 3.246L8.46916 8.904C8.45695 8.93361 8.45203 8.96571 8.45481 8.99762C8.4576 9.02952 8.468 9.0603 8.48515 9.08734C8.5023 9.11439 8.52569 9.13692 8.55337 9.15305C8.58104 9.16917 8.61218 9.17842 8.64416 9.18C10.8742 9.288 13.1102 9.288 15.3412 9.18C15.3731 9.17826 15.4041 9.16891 15.4316 9.15272C15.4592 9.13653 15.4824 9.11398 15.4995 9.08696C15.5165 9.05993 15.5268 9.02922 15.5296 8.99739C15.5323 8.96555 15.5274 8.93353 15.5152 8.904L13.1572 3.246ZM9.19216 3.276C9.20464 3.24562 9.20945 3.21264 9.20616 3.17996C9.20287 3.14729 9.19158 3.11592 9.1733 3.08864C9.15501 3.06136 9.13029 3.03901 9.10131 3.02355C9.07234 3.00809 9.04 3 9.00716 3H6.51716C6.27422 2.99993 6.0349 3.05886 5.81977 3.17174C5.60464 3.28461 5.42015 3.44805 5.28216 3.648L2.04416 8.343C2.02425 8.37179 2.01224 8.4053 2.00934 8.44018C2.00644 8.47507 2.01274 8.5101 2.02762 8.54179C2.0425 8.57347 2.06544 8.60069 2.09414 8.62074C2.12284 8.64078 2.15629 8.65294 2.19116 8.656L5.72216 8.976C5.99316 9.002 6.26416 9.025 6.53516 9.046C6.6194 9.05248 6.70352 9.03205 6.7754 8.98767C6.84729 8.94328 6.90323 8.87722 6.93516 8.799L9.19216 3.276Z" fill="#A536FF"/>
    </symbol>
    <symbol id="colors-group">
        <path opacity="0.8" d="M9.99977 13.0435C6.40368 13.0435 3.47803 10.1178 3.47803 6.52174C3.47803 2.92565 6.40368 0 9.99977 0C13.5959 0 16.5215 2.92565 16.5215 6.52174C16.5215 10.1178 13.5959 13.0435 9.99977 13.0435Z" fill="#A536FF"/>
        <path opacity="0.8" d="M6.52174 19.9995C2.92565 19.9995 0 17.0739 0 13.4778C0 9.88171 2.92565 6.95605 6.52174 6.95605C10.1178 6.95605 13.0435 9.88171 13.0435 13.4778C13.0435 17.0739 10.1178 19.9995 6.52174 19.9995Z" fill="#FF4345"/>
        <path opacity="0.8" d="M13.4783 19.9995C9.88219 19.9995 6.95654 17.0739 6.95654 13.4778C6.95654 9.88171 9.88219 6.95605 13.4783 6.95605C17.0744 6.95605 20 9.88171 20 13.4778C20 17.0739 17.0744 19.9995 13.4783 19.9995Z" fill="#FF9935"/>
    </symbol>
    <symbol id="colors-circle">
        <path d="M12.4698 0.710032L10.9098 4.45003C10.3112 4.19975 9.66874 4.07086 9.01984 4.07086C8.37095 4.07086 7.72852 4.19975 7.12984 4.45003L5.58984 0.670033C6.68204 0.220348 7.85274 -0.00769296 9.03386 -0.000825965C10.215 0.00604103 11.383 0.247678 12.4698 0.710032Z" fill="#F43434"/>
        <path d="M17.2898 12.4698L13.5498 10.9098C13.8001 10.3112 13.929 9.66874 13.929 9.01984C13.929 8.37095 13.8001 7.72852 13.5498 7.12984L17.3098 5.58984C17.7627 6.68071 17.9941 7.85073 17.9907 9.03185C17.9872 10.213 17.749 11.3816 17.2898 12.4698Z" fill="#DAE234"/>
        <path d="M17.3202 5.5902L13.5702 7.1302C13.3272 6.52791 12.9669 5.97994 12.5102 5.51814C12.0536 5.05633 11.5097 4.68992 10.9102 4.4402L12.4802 0.700195C13.5708 1.15378 14.5603 1.81968 15.3912 2.65918C16.2221 3.49867 16.8778 4.49499 17.3202 5.5902Z" fill="#E08B36"/>
        <path d="M12.4101 17.3202L10.8701 13.5702C11.4724 13.3272 12.0204 12.9669 12.4822 12.5102C12.944 12.0536 13.3104 11.5097 13.5601 10.9102L17.3101 12.4802C16.8554 13.5717 16.1879 14.5618 15.3467 15.3928C14.5054 16.2237 13.5072 16.8789 12.4101 17.3202Z" fill="#52EF7A"/>
        <path d="M5.53027 17.2898L7.09027 13.5498C7.68895 13.8001 8.33138 13.929 8.98027 13.929C9.62916 13.929 10.2716 13.8001 10.8703 13.5498L12.4103 17.3098C11.3194 17.7627 10.1494 17.9941 8.96827 17.9907C7.78714 17.9872 6.61849 17.749 5.53027 17.2898Z" fill="#54DBED"/>
        <path d="M0.679688 12.4101L4.42969 10.8701C4.67267 11.4724 5.03296 12.0204 5.48962 12.4822C5.94627 12.944 6.49016 13.3104 7.08969 13.5601L5.51969 17.3001C4.42909 16.8465 3.43955 16.1806 2.60865 15.3411C1.77774 14.5016 1.12204 13.5053 0.679688 12.4101Z" fill="#5286EF"/>
        <path d="M0.710032 5.53027L4.45003 7.09027C4.19975 7.68895 4.07086 8.33138 4.07086 8.98027C4.07086 9.62916 4.19975 10.2716 4.45003 10.8703L0.670033 12.4103C0.220348 11.3181 -0.00769296 10.1474 -0.000825965 8.96626C0.00604103 7.78513 0.247678 6.61716 0.710032 5.53027Z" fill="#5058F2"/>
        <path d="M5.5902 0.679688L7.1302 4.42969C6.52791 4.67267 5.97994 5.03296 5.51814 5.48962C5.05633 5.94627 4.68992 6.49016 4.4402 7.08969L0.700195 5.51969C1.15378 4.42909 1.81968 3.43955 2.65918 2.60865C3.49867 1.77774 4.49499 1.12204 5.5902 0.679688Z" fill="#EA5653"/>
    </symbol>
    <symbol id="megafon">
        <path d="M11.5923 4.24454V14.1257H7.08136C5.99892 14.1257 4.96081 13.6957 4.1954 12.9303C3.43 12.1649 3 11.1268 3 10.0444V8.3259C3 7.24345 3.43 6.20534 4.1954 5.43994C4.96081 4.67454 5.99892 4.24454 7.08136 4.24454H11.5923ZM20.848 2.2829C20.6547 2.14383 20.4311 2.05269 20.1957 2.01699C19.9603 1.98128 19.7197 2.00204 19.4939 2.07755L12.4481 4.42412V13.9462L19.4939 16.2927C19.647 16.3443 19.8075 16.3704 19.969 16.3701C20.1665 16.3703 20.3621 16.3316 20.5446 16.2562C20.7272 16.1807 20.893 16.0701 21.0328 15.9305C21.1725 15.7909 21.2833 15.6252 21.359 15.4427C21.4346 15.2603 21.4735 15.0647 21.4735 14.8673V3.50302C21.4734 3.26463 21.4166 3.02969 21.3078 2.81756C21.1991 2.60543 21.0415 2.42218 20.848 2.2829ZM12.5805 19.9513C12.2651 20.3545 11.8428 20.6609 11.3617 20.8357C10.8807 21.0105 10.3602 21.0467 9.85958 20.9401C9.35896 20.8335 8.89834 20.5885 8.5302 20.2329C8.16206 19.8773 7.9012 19.4255 7.77734 18.9289L6.78922 14.9678C6.88591 14.9821 6.98367 14.9878 7.08136 14.985H12.4172L13.0702 17.6056C13.1723 18.0081 13.1812 18.4286 13.0963 18.8351C13.0114 19.2415 12.835 19.6233 12.5805 19.9513Z" fill="#FF9935"/>
    </symbol>
    <symbol id="phone">
        <path d="M21.7388 17.1636C21.5716 18.4339 20.9477 19.6 19.9837 20.4439C19.0196 21.2879 17.7813 21.7521 16.5 21.7498C9.05626 21.7498 3.00001 15.6936 3.00001 8.24981C2.99771 6.96852 3.4619 5.73021 4.30588 4.76615C5.14986 3.80209 6.31592 3.17822 7.58626 3.01106C7.9075 2.97184 8.2328 3.03756 8.51362 3.19841C8.79444 3.35926 9.0157 3.60662 9.14438 3.90356L11.1244 8.32387V8.33512C11.2229 8.56242 11.2636 8.81059 11.2428 9.05744C11.222 9.3043 11.1404 9.54217 11.0053 9.74981C10.9884 9.77512 10.9706 9.79856 10.9519 9.822L9.00001 12.1357C9.7022 13.5626 11.1947 15.042 12.6403 15.7461L14.9222 13.8045C14.9446 13.7857 14.9681 13.7681 14.9925 13.752C15.2 13.6136 15.4387 13.5292 15.687 13.5062C15.9353 13.4833 16.1854 13.5227 16.4147 13.6207L16.4269 13.6264L20.8434 15.6054C21.1409 15.7337 21.3889 15.9547 21.5503 16.2356C21.7116 16.5164 21.7778 16.842 21.7388 17.1636Z" />
    </symbol>
    <symbol id="burger">
        <path d="M1.5 3.5L18.5 3.5C18.8978 3.5 19.2794 3.34197 19.5607 3.06066C19.842 2.77936 20 2.39783 20 2C20 1.60218 19.842 1.22065 19.5607 0.939343C19.2794 0.658038 18.8978 0.500003 18.5 0.500003L1.5 0.5C1.10218 0.5 0.720644 0.658035 0.43934 0.93934C0.158035 1.22064 -1.9271e-07 1.60218 -2.62268e-07 2C-3.31826e-07 2.39782 0.158035 2.77936 0.439339 3.06066C0.720644 3.34197 1.10217 3.5 1.5 3.5ZM18.5 6.5L1.5 6.5C1.10217 6.5 0.720643 6.65804 0.439339 6.93934C0.158034 7.22064 -1.24178e-06 7.60218 -1.31134e-06 8C-1.3809e-06 8.39782 0.158034 8.77936 0.439338 9.06066C0.720643 9.34196 1.10217 9.5 1.5 9.5L18.5 9.5C18.8978 9.5 19.2794 9.34197 19.5607 9.06066C19.842 8.77936 20 8.39783 20 8C20 7.60218 19.842 7.22065 19.5607 6.93934C19.2794 6.65804 18.8978 6.5 18.5 6.5ZM18.5 12.5L1.5 12.5C1.10217 12.5 0.720642 12.658 0.439338 12.9393C0.158033 13.2206 -2.29086e-06 13.6022 -2.36041e-06 14C-2.42997e-06 14.3978 0.158033 14.7794 0.439337 15.0607C0.720642 15.342 1.10217 15.5 1.5 15.5L18.5 15.5C18.8978 15.5 19.2794 15.342 19.5607 15.0607C19.842 14.7794 20 14.3978 20 14C20 13.6022 19.842 13.2206 19.5607 12.9393C19.2794 12.658 18.8978 12.5 18.5 12.5Z" />
    </symbol>
    <symbol id="cross">
        <path d="M17.7149 17.7147L6.28638 6.28613M17.7149 6.28613L6.28638 17.7147" stroke="white" stroke-width="2" stroke-linecap="round" stroke-linejoin="round" />
    </symbol>
    <symbol id="form-name" width="24">
        <path d="M11.7789 11.5342C12.9514 11.5342 13.9666 11.1137 14.7962 10.284C15.6257 9.45451 16.0462 8.43952 16.0462 7.26694C16.0462 6.09471 15.6257 5.07962 14.796 4.24979C13.9663 3.42038 12.9512 2.99988 11.7789 2.99988C10.6063 2.99988 9.59129 3.42038 8.76177 4.24993C7.93226 5.07948 7.51158 6.09461 7.51158 7.26694C7.51158 8.43952 7.93222 9.45465 8.76191 10.2842C9.5916 11.1136 10.6067 11.5342 11.7789 11.5342ZM19.2456 16.6234C19.2216 16.2782 19.1732 15.9016 19.102 15.5039C19.0301 15.1033 18.9375 14.7245 18.8267 14.3783C18.7122 14.0205 18.5565 13.6672 18.364 13.3286C18.1642 12.9772 17.9296 12.6711 17.6662 12.4193C17.3909 12.1559 17.0538 11.9441 16.6639 11.7896C16.2755 11.6359 15.8449 11.5581 15.3844 11.5581C15.2036 11.5581 15.0287 11.6322 14.6909 11.8522C14.4508 12.0085 14.2099 12.1638 13.9684 12.3179C13.7363 12.4658 13.4219 12.6044 13.0335 12.7298C12.6547 12.8524 12.27 12.9146 11.8903 12.9146C11.5106 12.9146 11.126 12.8524 10.7467 12.7298C10.3588 12.6045 10.0444 12.466 9.81258 12.3181C9.54371 12.1463 9.30045 11.9895 9.08943 11.852C8.75205 11.6321 8.57699 11.5579 8.39615 11.5579C7.93548 11.5579 7.50511 11.6359 7.11676 11.7897C6.72719 11.944 6.38994 12.1558 6.11433 12.4195C5.85117 12.6714 5.61638 12.9773 5.41686 13.3286C5.22453 13.6672 5.06882 14.0204 4.95417 14.3785C4.84344 14.7247 4.75088 15.1033 4.67897 15.5039C4.60772 15.901 4.55935 16.2778 4.5354 16.6238C4.51158 16.972 4.49978 17.321 4.5 17.67C4.5 18.5949 4.79399 19.3435 5.37374 19.8957C5.94633 20.4406 6.70394 20.717 7.62525 20.717H16.1561C17.0774 20.717 17.8348 20.4407 18.4075 19.8957C18.9874 19.344 19.2814 18.5951 19.2814 17.6699C19.2812 17.3129 19.2692 16.9608 19.2456 16.6234Z" fill="#3B3C40"/>
    </symbol>
    <symbol id="form-phone">
        <path d="M21.7388 17.1636C21.5716 18.4339 20.9477 19.6 19.9837 20.4439C19.0196 21.2879 17.7813 21.7521 16.5 21.7498C9.05626 21.7498 3.00001 15.6936 3.00001 8.24981C2.99771 6.96852 3.4619 5.73021 4.30588 4.76615C5.14986 3.80209 6.31592 3.17822 7.58626 3.01106C7.9075 2.97184 8.2328 3.03756 8.51362 3.19841C8.79444 3.35926 9.0157 3.60662 9.14438 3.90356L11.1244 8.32387V8.33512C11.2229 8.56242 11.2636 8.81059 11.2428 9.05744C11.222 9.3043 11.1404 9.54217 11.0053 9.74981C10.9884 9.77512 10.9706 9.79856 10.9519 9.822L9.00001 12.1357C9.7022 13.5626 11.1947 15.042 12.6403 15.7461L14.9222 13.8045C14.9446 13.7857 14.9681 13.7681 14.9925 13.752C15.2 13.6136 15.4387 13.5292 15.687 13.5062C15.9353 13.4833 16.1854 13.5227 16.4147 13.6207L16.4269 13.6264L20.8434 15.6054C21.1409 15.7337 21.3889 15.9547 21.5503 16.2356C21.7116 16.5164 21.7778 16.842 21.7388 17.1636Z" fill="#3B3C40"/>
    </symbol>
    <symbol id="next-slide">
        <path d="M8.91016 4.07992L15.4302 10.5999C16.2002 11.3699 16.2002 12.6299 15.4302 13.3999L8.91016 19.9199" stroke="url(#paint0_linear_472_1150)" stroke-width="2" stroke-miterlimit="10" stroke-linecap="round" stroke-linejoin="round"/>
        <defs>
        <linearGradient id="paint0_linear_472_1150" x1="8.91016" y1="19.9199" x2="16.8308" y2="19.5547" gradientUnits="userSpaceOnUse">
        <stop stop-color="#DD3197"/>
        <stop offset="1" stop-color="#822FAF"/>
        </linearGradient>
        </defs>
    </symbol>
    <symbol id="close-btn">
        <path d="M29.5247 29.5247L10.4771 10.4771M29.5247 10.4771L10.4771 29.5247" stroke="#9293B0" stroke-width="2" stroke-linecap="round" stroke-linejoin="round"/>
    </symbol>
</svg>
